<?xml version="1.0" encoding="utf-8"?>
<!-- Generator: Adobe Illustrator 27.5.0, SVG Export Plug-In . SVG Version: 6.00 Build 0)  -->
<svg version="1.1" id="Layer_1" xmlns="http://www.w3.org/2000/svg" xmlns:xlink="http://www.w3.org/1999/xlink" x="0px" y="0px"
	 viewBox="0 0 2718.039 2000" style="enable-background:new 0 0 2718.039 2000;" xml:space="preserve">
<g>
	<rect x="0" y="0" style="fill:#FFFFFF;" width="2718.039" height="2000"/>
	<g>
		<path style="fill:#13375B;" d="M2537.875,1809.963H300.113c-3.9,0-7.092,3.108-7.19,7.008c-0.001,0.049-0.002,0.098-0.003,0.146
			c-0.102,4.043,3.145,7.376,7.19,7.376h2237.765c4.202,0,7.61-3.252,7.61-7.265
			C2545.485,1813.215,2542.077,1809.963,2537.875,1809.963z"/>
	</g>
	<g>
		<path style="fill:#FAE0B2;" d="M1111.818,434.906c1.654,2.395,4.534,3.644,7.413,3.221c14.13-2.078,38.27,6.387,50.018,12.127
			l5.503,67.682c-10.667,7.562-33.123,19.815-47.402,20.048c-2.91,0.047-5.549,1.746-6.795,4.376l-22.855,48.237
			c-1.246,2.63-0.889,5.748,0.917,8.031c8.864,11.198,13.603,36.335,14.507,49.379l-55.862,38.607
			c-11.883-5.457-33.722-18.777-41.063-31.027c-1.496-2.496-4.287-3.933-7.188-3.697l-53.202,4.326
			c-2.901,0.236-5.423,2.104-6.496,4.81c-5.266,13.275-24.666,29.948-35.511,37.253l-61.365-29.075
			c-1.216-13.019-0.601-38.593,6.338-51.076c1.414-2.543,1.263-5.679-0.392-8.073l-30.348-43.911
			c-1.655-2.394-4.534-3.644-7.413-3.221c-14.13,2.078-38.27-6.387-50.018-12.126l-5.503-67.682
			c10.667-7.562,33.122-19.815,47.402-20.048c2.91-0.047,5.549-1.746,6.795-4.376l22.854-48.237c1.246-2.63,0.889-5.749-0.917-8.03
			c-8.864-11.198-13.604-36.336-14.507-49.38l55.863-38.607c11.882,5.457,33.721,18.776,41.063,31.027
			c1.496,2.496,4.287,3.933,7.188,3.697l53.202-4.326c2.901-0.236,5.422-2.104,6.496-4.81c5.266-13.275,24.666-29.949,35.511-37.253
			l61.366,29.075c1.216,13.02,0.6,38.592-6.339,51.075c-1.413,2.544-1.262,5.679,0.393,8.073L1111.818,434.906z M964.507,433.87
			c-36.812,2.993-64.229,35.263-61.235,72.076c2.994,36.813,35.263,64.229,72.076,61.235c36.813-2.993,64.229-35.263,61.236-72.075
			S1001.32,430.877,964.507,433.87z M961.032,391.12c-60.422,4.913-105.422,57.878-100.51,118.301
			c4.914,60.422,57.879,105.422,118.301,100.509c60.423-4.913,105.422-57.878,100.509-118.301
			C1074.419,431.207,1021.454,386.208,961.032,391.12z"/>
		<path style="fill:#FAE0B2;" d="M1409.779,1659.507c-1.654,3.481-1.188,7.611,1.203,10.638
			c11.721,14.847,17.955,48.151,19.13,65.43l-74.058,51.042c-15.73-7.25-44.633-24.929-54.337-41.167
			c-1.977-3.31-5.671-5.217-9.513-4.909l-70.475,5.64c-3.843,0.308-7.186,2.777-8.612,6.36
			c-6.997,17.572-32.721,39.625-47.099,49.281l-81.231-38.613c-1.588-17.248-0.729-51.119,8.483-67.641
			c1.877-3.367,1.681-7.521-0.506-10.694l-40.121-58.213c-2.188-3.175-5.999-4.835-9.813-4.278
			c-18.719,2.726-50.678-8.526-66.23-16.148l-7.174-89.655c14.142-10,43.905-26.19,62.819-26.475
			c3.854-0.057,7.354-2.304,9.008-5.784l30.354-63.854c1.655-3.481,1.187-7.612-1.202-10.638
			c-11.722-14.847-17.956-48.15-19.131-65.431l74.057-51.041c15.73,7.248,44.634,24.929,54.337,41.167
			c1.978,3.308,5.67,5.216,9.514,4.908l70.475-5.639c3.843-0.308,7.186-2.778,8.612-6.359c6.997-17.575,32.722-39.626,47.099-49.283
			l81.231,38.615c1.588,17.246,0.729,51.118-8.482,67.64c-1.877,3.367-1.682,7.519,0.506,10.693l40.121,58.215
			c2.188,3.174,5.998,4.833,9.813,4.277c18.72-2.728,50.678,8.525,66.229,16.147l7.175,89.656
			c-14.143,9.997-43.905,26.189-62.818,26.474c-3.855,0.058-7.354,2.302-9.009,5.784L1409.779,1659.507z M1313.628,1489.72
			c-27.762-40.28-82.921-50.43-123.202-22.668c-40.28,27.763-50.429,82.922-22.667,123.201
			c27.761,40.282,82.92,50.43,123.202,22.668C1331.241,1585.159,1341.39,1530,1313.628,1489.72z M1360.404,1457.48
			c-45.566-66.114-136.102-82.771-202.216-37.205c-66.115,45.566-82.772,136.103-37.205,202.218
			c45.566,66.114,136.102,82.771,202.217,37.205C1389.314,1614.131,1405.971,1523.596,1360.404,1457.48z"/>
		<path style="fill:#F48C7F;" d="M638.997,1162.229c-1.959,0.975-3.198,2.983-3.191,5.172c0.032,10.739-8.854,27.801-14.385,35.93
			l-50.966-3.154c-4.486-8.75-11.201-26.775-9.844-37.431c0.276-2.171-0.705-4.316-2.529-5.525l-33.456-22.18
			c-1.825-1.209-4.184-1.276-6.075-0.178c-9.284,5.398-28.503,6.232-38.309,5.507l-22.751-45.714
			c5.335-8.261,17.588-23.089,27.494-27.241c2.018-0.846,3.386-2.77,3.522-4.953l2.479-40.063c0.135-2.185-0.985-4.261-2.884-5.351
			c-9.316-5.342-19.648-21.567-23.924-30.422l28.215-42.561c9.821,0.491,28.789,3.689,37.337,10.19
			c1.742,1.325,4.091,1.548,6.05,0.573l35.936-17.883c1.959-0.975,3.198-2.984,3.191-5.172c-0.032-10.739,8.854-27.8,14.385-35.93
			l50.966,3.154c4.486,8.75,11.201,26.776,9.844,37.43c-0.276,2.171,0.705,4.317,2.529,5.526l33.455,22.178
			c1.825,1.21,4.183,1.278,6.075,0.179c9.285-5.399,28.503-6.233,38.309-5.508l22.75,45.715
			c-5.335,8.261-17.589,23.09-27.493,27.241c-2.018,0.846-3.386,2.769-3.521,4.953l-2.48,40.063
			c-0.135,2.184,0.985,4.261,2.883,5.35c9.317,5.341,19.648,21.568,23.924,30.422l-28.215,42.561
			c-9.821-0.49-28.789-3.688-37.337-10.189c-1.742-1.325-4.092-1.549-6.051-0.573L638.997,1162.229z M655.551,1052.694
			c1.716-27.721-19.365-51.585-47.086-53.3c-27.721-1.716-51.585,19.365-53.301,47.086c-1.715,27.721,19.366,51.585,47.087,53.301
			C629.972,1101.498,653.835,1080.416,655.551,1052.694z M687.742,1054.688c2.817-45.501-31.785-84.669-77.285-87.485
			c-45.5-2.817-84.668,31.786-87.485,77.285c-2.816,45.5,31.786,84.668,77.286,87.485
			C645.758,1134.79,684.926,1100.187,687.742,1054.688z"/>
		<path style="fill:#F47458;" d="M719.041,569.521c0.971,3.446,3.823,6.048,7.343,6.704c17.272,3.216,41.99,22.693,53.375,34.058
			l-20.584,80.961c-15.429,4.547-46.448,9.854-63.16,4.43c-3.405-1.105-7.153-0.18-9.653,2.383l-45.833,47.025
			c-2.499,2.564-3.326,6.335-2.134,9.71c5.85,16.567,1.342,47.712-2.808,63.253L555.182,840.7
			c-11.653-11.089-31.757-35.298-35.416-52.482c-0.747-3.502-3.42-6.286-6.891-7.169l-63.641-16.179
			c-3.47-0.882-7.149,0.287-9.477,3.007c-11.422,13.35-40.647,25.019-56.182,29.195l-59.823-58.306
			c3.777-15.637,14.691-45.152,27.744-56.913c2.659-2.396,3.734-6.106,2.763-9.551l-17.808-63.205
			c-0.971-3.446-3.823-6.048-7.343-6.704c-17.272-3.217-41.99-22.694-53.375-34.057l20.583-80.962
			c15.43-4.547,46.449-9.854,63.159-4.43c3.405,1.105,7.154,0.181,9.653-2.383l45.833-47.025c2.499-2.564,3.326-6.335,2.134-9.711
			c-5.851-16.567-1.342-47.711,2.807-63.253l80.407-22.655c11.652,11.089,31.757,35.298,35.417,52.482
			c0.745,3.502,3.419,6.286,6.89,7.169l63.641,16.179c3.47,0.882,7.149-0.286,9.477-3.007c11.421-13.35,40.648-25.018,56.182-29.195
			l59.822,58.306c-3.776,15.637-14.69,45.152-27.743,56.913c-2.659,2.396-3.734,6.105-2.763,9.551L719.041,569.521z
			 M548.017,509.574c-44.036-11.195-88.81,15.427-100.005,59.462c-11.195,44.036,15.427,88.81,59.462,100.005
			c44.036,11.196,88.81-15.427,100.006-59.462C618.675,565.544,592.053,520.77,548.017,509.574z M561.018,458.437
			c-72.278-18.375-145.768,25.321-164.143,97.599c-18.376,72.278,25.321,145.767,97.599,164.143
			c72.278,18.375,145.767-25.321,164.143-97.599C676.992,550.302,633.296,476.813,561.018,458.437z"/>
	</g>
	<path style="fill:#3C8F7C;" d="M672.301,1810.179h495.063c41.252,0,74.694-33.441,74.694-74.694V556.955
		c0-41.252-33.442-74.694-74.694-74.694H672.301c-41.251,0-74.694,33.441-74.694,74.694v1178.529
		C597.607,1776.737,631.049,1810.179,672.301,1810.179z"/>
	<path style="fill:#184655;" d="M706.854,1810.179h464.526c40.129,0,72.66-32.531,72.66-72.661V554.922
		c0-40.129-32.531-72.661-72.66-72.661H706.854c-40.129,0-72.661,32.531-72.661,72.661v1182.596
		C634.192,1777.647,666.724,1810.179,706.854,1810.179z"/>
	<path style="fill:#96D9C9;" d="M1214.535,1599.471V607.665c0-38.363-31.099-69.462-69.462-69.462H742.168
		c-38.364,0-69.463,31.1-69.463,69.462v991.806c0,38.362,31.099,69.462,69.463,69.462h402.905
		C1183.436,1668.933,1214.535,1637.833,1214.535,1599.471z"/>
	<path style="fill:#9BC1F9;" d="M1089.01,507.339c0,10.206-7.88,18.48-17.6,18.48c-9.721,0-17.601-8.273-17.601-18.48
		c0-10.206,7.88-18.48,17.601-18.48C1081.129,488.859,1089.01,497.133,1089.01,507.339z"/>
	<path style="fill:#9BC1F9;" d="M1135.277,508.345c0,10.206-7.88,18.48-17.601,18.48c-9.72,0-17.6-8.274-17.6-18.48
		c0-10.207,7.88-18.48,17.6-18.48C1127.397,489.864,1135.277,498.138,1135.277,508.345z"/>
	<g>
		<path style="fill:#9BC1F9;" d="M1707.293,680.06h181.366c48.597,0,87.994-39.397,87.994-87.994l0,0
			c0-48.599-39.397-87.995-87.994-87.995h-181.366c-48.597,0-87.995,39.396-87.995,87.995l0,0
			C1619.298,640.663,1658.696,680.06,1707.293,680.06z"/>
		<polygon style="fill:#9BC1F9;" points="1929.093,670.832 1948.386,773.173 1861.857,666.781 		"/>
		<g>
			<path style="fill:#FFFFFF;" d="M1924.903,571.925h-261.042c-3.441,0-6.231-2.79-6.231-6.232c0-3.441,2.79-6.232,6.231-6.232
				h261.042c3.442,0,6.232,2.79,6.232,6.232C1931.136,569.134,1928.346,571.925,1924.903,571.925z"/>
		</g>
		<g>
			<path style="fill:#FFFFFF;" d="M1924.903,618.179h-261.042c-3.441,0-6.231-2.791-6.231-6.233s2.79-6.231,6.231-6.231h261.042
				c3.442,0,6.232,2.789,6.232,6.231S1928.346,618.179,1924.903,618.179z"/>
		</g>
	</g>
	<g>
		<path style="fill:#F48C7F;" d="M1673.295,332.896h-90.346c-9.172,0-16.607-7.435-16.607-16.607v-90.346
			c0-9.172,7.436-16.607,16.607-16.607h90.346c9.172,0,16.607,7.435,16.607,16.607v90.346
			C1689.902,325.461,1682.467,332.896,1673.295,332.896z"/>
		<path style="fill:#FFFFFF;" d="M1629.957,227.176c-15.637,0-28.313,15.471-28.313,34.554c0,14.247,16.109,38.765,24.274,50.278
			c2.241,3.162,6.948,3.117,9.129-0.089c7.85-11.549,23.223-35.978,23.223-50.189
			C1658.271,242.647,1645.594,227.176,1629.957,227.176z M1631.25,269.647c-8.48,0.536-15.472-6.456-14.935-14.936
			c0.442-6.994,6.116-12.669,13.11-13.111c8.479-0.536,15.472,6.456,14.936,14.936C1643.92,263.53,1638.244,269.206,1631.25,269.647
			z"/>
	</g>
	<g>
		<path style="fill:#96D9C9;" d="M789.962,351.876H668.709c-12.31,0-22.288-9.978-22.288-22.288V208.335
			c0-12.309,9.979-22.288,22.288-22.288h121.253c12.309,0,22.288,9.979,22.288,22.288v121.252
			C812.25,341.898,802.271,351.876,789.962,351.876z"/>
		<g>
			<path style="fill:#FFFFFF;" d="M792.613,251.124c1.245-5.34-3.729-11.096-11.176-12.435c-32.605-5.874-65.995-6.067-98.687-0.564
				c-7.468,1.251-12.444,7.026-11.174,12.479l0,0c9.773,43.726,5.73,27.538,13.233,51.838c1.798,5.653,7.555,8.998,13.345,8.024l0,0
				c6.135-1.047,10.651-6.631,10.042-12.864c-0.368-3.421-0.736-6.842-1.104-10.263c-0.447-3.918,2.825-7.509,7.318-7.842
				c11.816-0.883,23.681-0.902,35.5-0.052c4.495,0.321,7.774,3.872,7.336,7.75c-0.36,3.388-0.721,6.776-1.082,10.164
				c-0.596,6.178,3.942,11.637,10.099,12.585l0,0c5.809,0.879,11.57-2.457,13.344-8
				C781.408,296.146,790.121,262.278,792.613,251.124z"/>
			<g>
				<path style="fill:#96D9C9;" d="M697.232,248.652c1.575,0,3.051,0.43,4.314,1.179v-6.697h-8.628v6.697
					C694.182,249.082,695.657,248.652,697.232,248.652z"/>
				<path style="fill:#96D9C9;" d="M688.761,257.124c0-1.575,0.43-3.05,1.179-4.313h-6.698v8.627h6.698
					C689.19,260.175,688.761,258.699,688.761,257.124z"/>
				<path style="fill:#96D9C9;" d="M697.232,265.597c-1.575,0-3.05-0.43-4.314-1.179v6.698h8.628v-6.698
					C700.283,265.167,698.808,265.597,697.232,265.597z"/>
				<path style="fill:#96D9C9;" d="M704.525,252.811c0.75,1.264,1.18,2.738,1.18,4.313s-0.43,3.051-1.18,4.314h6.698v-8.627H704.525
					z"/>
			</g>
			<path style="fill:#96D9C9;" d="M702.401,257.124c0,2.854-2.314,5.169-5.169,5.169c-2.855,0-5.169-2.315-5.169-5.169
				s2.314-5.168,5.169-5.168C700.087,251.956,702.401,254.27,702.401,257.124z"/>
			<path style="fill:#96D9C9;" d="M779.315,257.801c0,6.107-4.95,11.057-11.058,11.057c-6.107,0-11.057-4.95-11.057-11.057
				s4.95-11.057,11.057-11.057C774.365,246.744,779.315,251.694,779.315,257.801z"/>
		</g>
	</g>
	<g>
		<path style="fill:#F7A491;" d="M371.987,1058.265h-133.38c-13.541,0-24.518-10.977-24.518-24.517V900.366
			c0-13.541,10.977-24.517,24.518-24.517h133.38c13.541,0,24.518,10.977,24.518,24.517v133.382
			C396.505,1047.288,385.528,1058.265,371.987,1058.265z"/>
		<path style="fill:#FFFFFF;" d="M369.881,962.257c0,34.522-27.986,62.508-62.508,62.508c-34.523,0-62.509-27.986-62.509-62.508
			c0-34.522,27.986-62.508,62.509-62.508C341.895,899.749,369.881,927.735,369.881,962.257z"/>
		<path style="fill:#F47458;" d="M304.712,929.452l5.571,37.528c0.408,2.749-1.49,5.307-4.238,5.715
			c-2.749,0.408-5.308-1.489-5.716-4.237c-0.065-0.441-0.067-0.9-0.021-1.323L304.712,929.452z"/>
		<path style="fill:#F47458;" d="M305.092,963.729l44.174,3.738l-44.059,4.907c-2.384,0.265-4.531-1.452-4.797-3.836
			c-0.265-2.385,1.452-4.531,3.836-4.797C304.524,963.709,304.823,963.708,305.092,963.729z"/>
	</g>
	<g>
		<path style="fill:#50BFA5;" d="M493.895,1392.209H359.393c-13.654,0-24.724-11.069-24.724-24.724v-134.503
			c0-13.654,11.069-24.724,24.724-24.724h134.502c13.655,0,24.724,11.069,24.724,24.724v134.503
			C518.619,1381.14,507.55,1392.209,493.895,1392.209z"/>
		<path style="fill:#FFFFFF;" d="M487.633,1298.775c0,34.073-27.621,61.693-61.692,61.693c-34.073,0-61.693-27.62-61.693-61.693
			c0-34.072,27.62-61.692,61.693-61.692C460.012,1237.083,487.633,1264.703,487.633,1298.775z"/>
		<path style="fill:#96D9C9;" d="M454.491,1292.358l-35.419-20.448c-3.306-1.909-7.437,0.478-7.437,4.293v40.898
			c0,3.817,4.131,6.202,7.437,4.295l35.419-20.45C457.796,1299.038,457.796,1294.267,454.491,1292.358z"/>
	</g>
	<g>
		<path style="fill:#50BFA5;" d="M1451.188,571.384h-119.213c-12.102,0-21.913-9.81-21.913-21.913V430.258
			c0-12.103,9.811-21.914,21.913-21.914h119.213c12.102,0,21.913,9.811,21.913,21.914v119.212
			C1473.101,561.573,1463.289,571.384,1451.188,571.384z"/>
		<path style="fill:#FFFFFF;" d="M1377.957,471.277l7.938-6.302c2.447-1.944,3.181-5.342,1.757-8.124
			c-2.79-5.447-8.134-14.262-15.983-20.382c-2.368-1.846-5.694-1.832-8.059,0.021l-13.912,10.895
			c-1.755,1.375-2.691,3.545-2.486,5.765c0.863,9.38,5.068,34.875,25.54,52.788c23.33,20.414,44.608,28.727,58.962,31.877
			c2.333,0.512,4.759-0.278,6.337-2.072l12.036-13.686c2.109-2.398,2.182-5.966,0.176-8.451
			c-4.057-5.023-12.119-12.874-25.11-16.808c-2.655-0.804-5.528,0.158-7.173,2.392l-4.337,5.895
			c-1.772,2.407-4.944,3.308-7.722,2.199c-5.975-2.388-16.673-8.975-29.278-27.143
			C1374.675,477.303,1375.254,473.424,1377.957,471.277z"/>
	</g>
	<g>
		<polygon style="fill:#13375B;" points="1172.736,997.571 1086.795,927.924 1049.262,995.572 1118.401,1061.472 		"/>
		<path style="fill:#13375B;" d="M1107.97,1015.163c-8.616,21.361,1.763,45.682,23.181,54.32
			c21.419,8.64,45.766-1.674,54.382-23.036c8.616-21.36-1.763-45.681-23.181-54.32
			C1140.934,983.489,1116.586,993.802,1107.97,1015.163z"/>
		<path style="fill:#13375B;" d="M827.178,1047.327l35.581-109.537l-16.988-9.649c-26.123-14.839-57.537,1.01-68.757,34.691
			l-21.763,65.328L827.178,1047.327z"/>
		<path style="fill:#13375B;" d="M794.045,991.535c-20.524-1.299-38.48,18.371-40.107,43.936
			c-1.627,25.563,13.692,47.34,34.215,48.639c20.524,1.3,38.481-18.371,40.107-43.936
			C829.887,1014.61,814.568,992.833,794.045,991.535z"/>
		<g>
			<g>
				<path style="fill:#355389;" d="M723.243,1290.075c-2.745-0.516-5.494-1.021-8.245-1.516c-2.096-0.376-4.128,1.012-4.498,3.104
					c-0.934,5.28-1.653,10.577-2.159,15.881c-0.206,2.157,1.452,4.041,3.621,4.176c2.772,0.168,5.542,0.35,8.311,0.543
					c2.102,0.146,3.908-1.407,4.111-3.499c0.46-4.738,1.105-9.472,1.937-14.192C726.69,1292.479,725.336,1290.469,723.243,1290.075z
					"/>
				<path style="fill:#355389;" d="M717.666,1315.377c-1.232-0.038-2.464-0.074-3.697-0.107c-2.137-0.058-3.943,1.633-3.983,3.766
					c-0.122,6.549,0.084,13.087,0.614,19.589c0.176,2.151,2.126,3.711,4.277,3.472c1.226-0.137,2.452-0.271,3.678-0.402
					c2.091-0.226,3.591-2.069,3.423-4.16c-0.487-6.035-0.676-12.104-0.567-18.184
					C721.45,1317.223,719.796,1315.442,717.666,1315.377z"/>
			</g>
			<path style="fill:#466EB6;" d="M789.17,1049.131c-5.909-0.513-11.781-1.37-17.591-2.57c-16.429-3.394-32.822,6.055-38.661,21.741
				c-11.425,30.69-22.849,61.38-34.274,92.07c-6.876,18.471,3.372,38.778,22.267,44.531c21.462,6.537,43.579,10.463,65.983,11.709
				c20.042,1.115,36.784-15.036,36.188-35.048c-0.988-33.176-1.976-66.353-2.964-99.529
				C819.606,1064.849,806.347,1050.621,789.17,1049.131z"/>
			<path style="fill:#355389;" d="M750,1215.905l-15.463-3.41c-15.542-3.426-30.927,6.362-34.362,21.863l-3.643,16.436
				l65.556,14.453l5.011-22.61C769.778,1230.545,762.123,1218.576,750,1215.905z"/>
			<path style="fill:#355389;" d="M732.098,1262.278l-12.697-2.799c-2.084-0.459-4.147,0.854-4.608,2.932l-3.902,17.608
				c-0.461,2.08,0.855,4.137,2.94,4.597l12.696,2.8c2.085,0.458,4.148-0.854,4.608-2.933l3.903-17.608
				C735.499,1264.797,734.182,1262.739,732.098,1262.278z"/>
			<g>
				<path style="fill:#355389;" d="M700.677,1284.568c-2.746-0.516-5.495-1.021-8.246-1.516c-2.096-0.376-4.128,1.012-4.498,3.104
					c-0.934,5.279-1.653,10.577-2.16,15.881c-0.205,2.157,1.452,4.041,3.622,4.175c2.771,0.169,5.542,0.352,8.31,0.544
					c2.102,0.146,3.909-1.407,4.111-3.499c0.46-4.737,1.106-9.472,1.938-14.193C704.124,1286.973,702.769,1284.962,700.677,1284.568
					z"/>
				<path style="fill:#355389;" d="M695.1,1309.87c-1.232-0.038-2.463-0.074-3.696-0.106c-2.138-0.059-3.943,1.633-3.983,3.765
					c-0.122,6.549,0.083,13.087,0.614,19.589c0.175,2.152,2.125,3.712,4.277,3.472c1.225-0.137,2.451-0.271,3.678-0.402
					c2.092-0.226,3.591-2.068,3.423-4.16c-0.487-6.035-0.676-12.104-0.566-18.184C698.884,1311.716,697.231,1309.936,695.1,1309.87z
					"/>
			</g>
			<path style="fill:#355389;" d="M709.531,1256.771l-12.696-2.799c-2.085-0.459-4.148,0.853-4.608,2.932l-3.902,17.609
				c-0.461,2.079,0.856,4.137,2.939,4.596l12.697,2.799c2.084,0.459,4.147-0.854,4.608-2.932l3.902-17.608
				C712.933,1259.29,711.617,1257.232,709.531,1256.771z"/>
			<g>
				<path style="fill:#355389;" d="M745.809,1295.822c-2.746-0.517-5.495-1.022-8.246-1.517c-2.096-0.377-4.128,1.012-4.498,3.104
					c-0.934,5.279-1.653,10.577-2.159,15.881c-0.206,2.158,1.453,4.041,3.622,4.175c2.771,0.17,5.541,0.352,8.31,0.545
					c2.102,0.146,3.908-1.409,4.111-3.501c0.461-4.736,1.105-9.472,1.937-14.191
					C749.255,1298.227,747.902,1296.215,745.809,1295.822z"/>
				<path style="fill:#355389;" d="M740.232,1321.122c-1.232-0.037-2.464-0.072-3.697-0.105c-2.137-0.06-3.944,1.632-3.983,3.765
					c-0.122,6.549,0.083,13.088,0.614,19.589c0.176,2.152,2.126,3.711,4.277,3.472c1.226-0.137,2.452-0.271,3.678-0.403
					c2.092-0.225,3.592-2.066,3.423-4.158c-0.486-6.035-0.676-12.104-0.566-18.185
					C744.015,1322.97,742.362,1321.188,740.232,1321.122z"/>
			</g>
			<path style="fill:#355389;" d="M754.664,1268.025l-12.697-2.799c-2.084-0.459-4.147,0.853-4.608,2.932l-3.902,17.608
				c-0.461,2.078,0.855,4.136,2.939,4.596l12.697,2.8c2.085,0.459,4.148-0.854,4.608-2.933l3.902-17.608
				C758.064,1270.542,756.748,1268.484,754.664,1268.025z"/>
			<g>
				<path style="fill:#355389;" d="M769.662,1273.795c2.747-0.518,5.495-1.022,8.246-1.517c2.096-0.377,4.128,1.012,4.498,3.104
					c0.934,5.279,1.652,10.578,2.158,15.882c0.206,2.157-1.451,4.04-3.621,4.174c-2.771,0.171-5.541,0.352-8.31,0.545
					c-2.102,0.146-3.909-1.409-4.112-3.501c-0.459-4.736-1.104-9.472-1.936-14.19
					C766.216,1276.198,767.57,1274.188,769.662,1273.795z"/>
				<path style="fill:#355389;" d="M775.24,1299.096c1.232-0.038,2.464-0.073,3.696-0.106c2.137-0.06,3.943,1.633,3.984,3.765
					c0.122,6.55-0.083,13.088-0.614,19.589c-0.175,2.152-2.126,3.712-4.277,3.471c-1.226-0.135-2.452-0.271-3.678-0.402
					c-2.092-0.224-3.593-2.067-3.423-4.158c0.486-6.034,0.676-12.104,0.565-18.185
					C771.456,1300.942,773.109,1299.161,775.24,1299.096z"/>
			</g>
			<path style="fill:#355389;" d="M769.714,1244.668c0.058-0.264,0.112-0.527,0.163-0.791l3.744-0.825
				c2.006-0.442,3.991,0.82,4.435,2.821l3.991,18.008c0.443,2-0.823,3.98-2.829,4.423l-11.387,2.51
				c-1.393,0.308-2.776-0.208-3.64-1.223L769.714,1244.668z"/>
		</g>
		<path style="fill:#B75742;" d="M1083.552,710.734c0.021-182.858-250.732-182.889-250.753,0c-2.133,0-4.266,0-6.399,0
			c-0.021-192.284,263.658-192.315,263.679,0C1087.903,710.734,1085.727,710.734,1083.552,710.734z"/>
		<path style="fill:#B75742;" d="M946.255,567.044c0.454,2.346,0.607,4.692,0.605,7.038
			c66.228-5.845,136.703,39.708,136.692,136.653c2.175,0,4.351,0,6.527,0C1090.067,608.75,1015.911,560.86,946.255,567.044z"/>
		<path style="fill:#B75742;" d="M946.451,566.757c0,2.359,0,4.718,0,7.077c66.984-4.052,127.286,42.05,127.274,137.368
			c2.234,0,19.814-0.689,22.049-0.689C1095.762,610.449,1016.768,562.688,946.451,566.757z"/>
		<path style="fill:#F47458;" d="M1087.271,693.916c-16.232,0.405-28.478,26.278-27.362,57.402
			c1.063,29.641,13.855,54.346,29.09,56.053c0,0,0.007-0.004,0.01-0.004c22.051-2.678,48.342-22.557,47.494-47.076v-19.052
			C1136.502,715.729,1111.342,693.316,1087.271,693.916z"/>
		<path style="fill:#13375B;" d="M1031.63,1151.113H892.54v-37.828c0-10.253,8.31-18.563,18.563-18.563h101.964
			c10.252,0,18.563,8.311,18.563,18.563V1151.113z"/>
		<path style="fill:#13375B;" d="M936.641,1161.483c0,23.013-16.707,41.669-37.317,41.669c-20.609,0-37.316-18.656-37.316-41.669
			c0-23.012,16.707-41.667,37.316-41.667C919.934,1119.816,936.641,1138.472,936.641,1161.483z"/>
		<ellipse style="fill:#13375B;" cx="1046.896" cy="1356.566" rx="37.317" ry="41.668"/>
		<path style="fill:#13375B;" d="M1082.517,1566.802c0,23.012-16.708,41.668-37.317,41.668c-20.609,0-37.316-18.656-37.316-41.668
			c0-23.013,16.707-41.668,37.316-41.668C1065.809,1525.134,1082.517,1543.789,1082.517,1566.802z"/>
		<path style="fill:#13375B;" d="M1061.597,1161.483c0,23.013-16.708,41.669-37.317,41.669c-20.609,0-37.317-18.656-37.317-41.669
			c0-23.012,16.708-41.667,37.317-41.667C1044.889,1119.816,1061.597,1138.472,1061.597,1161.483z"/>
		<path style="fill:#355389;" d="M1073.293,913.293c-76.707-14.196-155.381-13.78-231.86,1.211
			c-10.143,1.988-15.979,12.69-12.096,22.245c18.11,44.556,34.346,89.781,48.676,135.559c2.381,7.608,9.845,12.386,17.78,11.44
			c0.729-0.086,1.458-0.172,2.188-0.255c13.984-1.594,26.22,9.394,26.22,23.432l4.789,79.751l64.854-1.182l4.992-74.532
			c0-14.649,13.277-25.841,27.727-23.213c0.144,0.025,0.287,0.052,0.43,0.078c8.449,1.545,16.625-3.748,18.813-12.032
			c12.507-47.365,25.932-94.558,40.273-141.556C1088.946,924.84,1082.979,915.086,1073.293,913.293z"/>
		<path style="fill:#466EB6;" d="M1045.805,1075.795c12.507-47.365,25.932-94.558,40.273-141.556
			c2.868-9.399-3.1-19.153-12.785-20.946c-76.707-14.196-155.381-13.78-231.86,1.211c-10.143,1.988-15.979,12.69-12.096,22.245
			c18.11,44.556,34.346,89.781,48.675,135.559c2.381,7.608,9.845,12.386,17.78,11.44c0.729-0.086,1.458-0.172,2.188-0.255
			c0.453-0.052,0.904-0.09,1.354-0.115l4.579-0.993l115.848,5.123c2.204-0.246,4.488-0.18,6.801,0.241
			c0.144,0.025,0.287,0.052,0.43,0.078l2.863,0.268C1037.224,1088.13,1043.866,1083.137,1045.805,1075.795z"/>
		<path style="fill:#466EB6;" d="M1071.11,1344.06c-21.571,1.08-43.173,0.711-64.692-1.104c-9.894-0.836-17.284-10.507-16.35-21.537
			c3.594-42.448,7.188-84.896,10.781-127.343c0.879-10.387,8.85-18.164,18.189-17.843c13.037,0.448,26.082,0.163,39.083-0.856
			c9.602-0.753,18.009,7.102,18.915,17.802c3.649,43.103,7.298,86.206,10.947,129.31
			C1088.937,1333.747,1081.229,1343.553,1071.11,1344.06z"/>
		<path style="fill:#466EB6;" d="M1124.357,1550.702l-28.398-147.322c-2.354-12.21-12.021-20.928-23.206-20.928h-39.482
			c-11.185,0-20.852,8.718-23.206,20.928l-28.398,147.322h0.03v50.625c0,10.427,6.912,19.051,15.899,20.473
			c1.363,0.215,2.772,0.264,4.214,0.129c9.642-0.899,16.921-10.202,16.921-21.004v-25.581c0-13.607,9.881-24.642,22.069-24.642
			h54.588c8.183,0,14.816,7.407,14.816,16.543v54.759l0,0c7.807,0,14.135-6.329,14.135-14.135v-57.167H1124.357z"/>
		<path style="fill:#355389;" d="M1072.622,1562.066c0,0-41.558-0.946-57.671,10.417c-8.204,5.785-11.351,19.915-12.465,32.394
			c-1.171,13.118,4.517,25.821,14.565,32.745l16.195,11.156c5.787,3.988,12.438,6.14,19.237,6.224l38.902,0.479
			c16.018,0.196,29.395-13.678,30.3-31.534c0.875-17.276,0.592-36.716-4.113-44.835
			C1108.242,1563.014,1072.622,1562.066,1072.622,1562.066z"/>
		<path style="fill:#13375B;" d="M925.289,1357.041c-0.34,23.011-17.321,41.418-37.928,41.113
			c-20.607-0.306-37.037-19.205-36.697-42.215c0.339-23.01,17.321-41.417,37.928-41.113
			C909.198,1315.131,925.628,1334.031,925.289,1357.041z"/>
		<path style="fill:#13375B;" d="M911.1,1566.558c-0.34,23.011-17.321,41.417-37.928,41.113
			c-20.607-0.305-37.037-19.206-36.697-42.215c0.339-23.01,17.32-41.417,37.928-41.112
			C895.01,1524.649,911.44,1543.548,911.1,1566.558z"/>
		<path style="fill:#466EB6;" d="M919.748,1344.06c-21.57,1.08-43.173,0.711-64.692-1.104c-9.894-0.836-17.284-10.507-16.35-21.537
			c3.594-42.448,7.188-84.896,10.781-127.343c0.879-10.387,8.85-18.164,18.189-17.843c13.037,0.448,26.082,0.163,39.083-0.856
			c9.602-0.753,18.01,7.102,18.915,17.802c3.649,43.103,7.298,86.206,10.947,129.31
			C937.574,1333.747,929.867,1343.553,919.748,1344.06z"/>
		<path style="fill:#466EB6;" d="M953.173,1551.078l-26.219-147.726c-2.173-12.244-11.71-21.104-22.895-21.269l-39.477-0.584
			c-11.184-0.164-20.979,8.411-23.513,20.584l-30.57,146.888h0.03l-0.747,50.62c-0.154,10.426,6.629,19.149,15.594,20.703
			c1.359,0.235,2.768,0.305,4.211,0.192c9.654-0.757,17.07-9.949,17.231-20.753l0.377-25.576
			c0.201-13.608,10.243-24.494,22.43-24.313l54.582,0.806c8.181,0.122,14.704,7.625,14.569,16.76l-0.809,54.753l0,0
			c7.806,0.115,14.227-6.119,14.342-13.925l0.845-57.16H953.173z"/>
		<path style="fill:#355389;" d="M901.276,1561.677c0,0-41.539-1.56-57.819,9.564c-8.288,5.663-11.644,19.745-12.941,32.205
			c-1.365,13.101,4.134,25.886,14.08,32.957l16.027,11.396c5.728,4.072,12.346,6.32,19.144,6.506l38.891,1.054
			c16.013,0.435,29.593-13.241,30.762-31.083c1.131-17.262,1.134-36.702-3.45-44.892
			C936.879,1563.15,901.276,1561.677,901.276,1561.677z"/>
		<path style="fill:#13375B;" d="M958.162,934.995h-0.07c-14.502,0-26.256-11.755-26.256-26.256v-49.448h52.583v49.448
			C984.419,923.24,972.663,934.995,958.162,934.995z"/>
		<ellipse style="fill:#466EB6;" cx="955.583" cy="743.407" rx="142.483" ry="137.03"/>
		<path style="fill:#13375B;" d="M1050.005,786.306c-49.194-10.166-99.523-9.977-148.641,0.553
			c-9.96,2.136-19.585-5.292-21.794-16.915c-1.853-9.749-3.705-19.498-5.558-29.246c-2.326-12.242,4.444-24.385,14.942-26.59
			c57.313-12.039,115.993-11.832,173.223,0.61c10.444,2.271,17.151,14.375,14.834,26.567c-1.778,9.36-3.557,18.72-5.335,28.079
			C1069.478,780.933,1059.929,788.357,1050.005,786.306z"/>
		<path style="fill:#9BC1F9;" d="M1050.811,743.696c0,8.721-7.404,15.79-16.538,15.79c-9.134,0-16.538-7.069-16.538-15.79
			c0-8.72,7.404-15.789,16.538-15.789C1043.407,727.906,1050.811,734.976,1050.811,743.696z"/>
		<path style="fill:#B75742;" d="M815.575,710.283c2.133,0,19.456,2.297,21.589,2.297c0.011-85.928,51.002-133.318,109.696-138.498
			c0.002-2.346-0.151-4.692-0.605-7.038C884.557,572.521,815.565,619.966,815.575,710.283z"/>
		<path style="fill:#F47458;" d="M827.478,692.476c16.233,0.405,28.478,26.279,27.362,57.403
			c-1.063,29.641-13.855,54.345-29.09,56.053c0,0-0.007-0.005-0.01-0.005c-22.051-2.678-48.342-22.556-47.495-47.076v-19.053
			C778.246,714.289,803.406,691.875,827.478,692.476z"/>
		<g>
			<path style="fill:#9BC1F9;" d="M914.034,753.997c-1.335,0-2.672-0.486-3.722-1.468c-2.192-2.053-2.321-5.485-0.277-7.686
				c7.267-7.826,25.959-19.045,44.696-5.479c2.439,1.767,2.986,5.177,1.219,7.617c-1.767,2.439-5.177,2.987-7.617,1.219
				c-15.544-11.256-29.722,3.452-30.318,4.083C916.94,753.421,915.489,753.997,914.034,753.997z"/>
		</g>
		<g>
			<g>
				<path style="fill:#355389;" d="M1353.698,888.129c1.838,2.104,3.686,4.2,5.542,6.291c1.415,1.592,3.869,1.758,5.454,0.343
					c3.999-3.571,7.841-7.289,11.518-11.144c1.496-1.568,1.358-4.074-0.264-5.521c-2.074-1.847-4.138-3.703-6.193-5.567
					c-1.563-1.415-3.942-1.312-5.395,0.207c-3.293,3.439-6.728,6.759-10.3,9.954
					C1352.478,884.108,1352.297,886.526,1353.698,888.129z"/>
				<path style="fill:#355389;" d="M1373.729,871.697c0.945,0.792,1.891,1.582,2.839,2.371c1.644,1.367,4.108,1.156,5.459-0.495
					c4.146-5.071,8.028-10.336,11.633-15.773c1.193-1.799,0.626-4.231-1.213-5.373c-1.048-0.651-2.094-1.304-3.14-1.958
					c-1.782-1.117-4.102-0.595-5.263,1.151c-3.35,5.044-6.954,9.93-10.801,14.639
					C1371.899,867.906,1372.097,870.328,1373.729,871.697z"/>
			</g>
			<path style="fill:#466EB6;" d="M1152.871,1036.686c4.326,4.058,8.41,8.363,12.233,12.899
				c10.811,12.828,29.536,15.543,43.827,6.827c27.959-17.049,55.918-34.1,83.876-51.149c16.828-10.261,21.334-32.557,10.046-48.764
				c-12.822-18.411-27.773-35.174-44.607-50.01c-15.06-13.272-38.204-10.936-50.112,5.158
				c-19.743,26.681-39.487,53.362-59.23,80.043C1138.676,1005.511,1140.296,1024.892,1152.871,1036.686z"/>
			<path style="fill:#355389;" d="M1286.799,929.862l10.042,12.243c10.094,12.305,28.237,14.129,40.523,4.074l13.028-10.663
				l-42.574-51.902l-17.922,14.668C1280.313,906.125,1278.925,920.265,1286.799,929.862z"/>
			<path style="fill:#355389;" d="M1329.548,904.495l8.247,10.053c1.353,1.649,3.787,1.894,5.435,0.546l13.957-11.423
				c1.648-1.349,1.886-3.779,0.533-5.43l-8.245-10.053c-1.354-1.649-3.787-1.894-5.436-0.545l-13.957,11.422
				C1328.434,900.413,1328.195,902.844,1329.548,904.495z"/>
			<g>
				<path style="fill:#355389;" d="M1368.024,906.413c1.839,2.104,3.686,4.202,5.542,6.291c1.414,1.591,3.869,1.758,5.453,0.343
					c4-3.571,7.842-7.289,11.52-11.143c1.496-1.569,1.358-4.074-0.264-5.52c-2.073-1.847-4.137-3.705-6.193-5.568
					c-1.563-1.414-3.941-1.312-5.395,0.207c-3.292,3.438-6.728,6.759-10.301,9.954
					C1366.803,902.392,1366.623,904.81,1368.024,906.413z"/>
				<path style="fill:#355389;" d="M1388.056,889.982c0.945,0.792,1.891,1.581,2.839,2.369c1.644,1.368,4.109,1.156,5.459-0.494
					c4.146-5.071,8.028-10.336,11.633-15.772c1.194-1.801,0.625-4.232-1.214-5.374c-1.047-0.651-2.093-1.304-3.139-1.958
					c-1.782-1.117-4.101-0.596-5.263,1.151c-3.35,5.044-6.954,9.93-10.801,14.639
					C1386.224,886.19,1386.422,888.612,1388.056,889.982z"/>
			</g>
			<path style="fill:#355389;" d="M1343.875,922.779l8.246,10.052c1.354,1.65,3.787,1.896,5.435,0.546l13.957-11.422
				c1.648-1.349,1.887-3.78,0.533-5.43l-8.246-10.052c-1.354-1.65-3.787-1.894-5.435-0.546l-13.957,11.423
				C1342.76,918.697,1342.521,921.128,1343.875,922.779z"/>
			<g>
				<path style="fill:#355389;" d="M1339.521,869.657c1.839,2.104,3.686,4.201,5.542,6.292c1.415,1.592,3.87,1.758,5.454,0.343
					c3.999-3.571,7.84-7.289,11.519-11.144c1.496-1.568,1.357-4.074-0.265-5.521c-2.072-1.847-4.137-3.703-6.192-5.567
					c-1.562-1.415-3.942-1.311-5.396,0.207c-3.292,3.438-6.727,6.76-10.3,9.954C1338.3,865.636,1338.119,868.053,1339.521,869.657z"
					/>
				<path style="fill:#355389;" d="M1359.552,853.226c0.944,0.792,1.891,1.582,2.839,2.37c1.643,1.368,4.108,1.156,5.459-0.495
					c4.146-5.07,8.029-10.335,11.633-15.772c1.193-1.8,0.625-4.231-1.213-5.374c-1.049-0.65-2.095-1.303-3.14-1.957
					c-1.782-1.117-4.101-0.598-5.263,1.15c-3.35,5.043-6.954,9.929-10.802,14.64
					C1357.721,849.434,1357.918,851.856,1359.552,853.226z"/>
			</g>
			<path style="fill:#355389;" d="M1315.37,886.023l8.247,10.052c1.354,1.65,3.787,1.895,5.434,0.546l13.957-11.423
				c1.647-1.348,1.887-3.779,0.533-5.43l-8.246-10.053c-1.354-1.65-3.787-1.894-5.435-0.546l-13.957,11.422
				C1314.255,881.941,1314.017,884.373,1315.37,886.023z"/>
			<g>
				<path style="fill:#355389;" d="M1307.153,872.212c-2.479-1.292-4.95-2.595-7.417-3.908c-1.879-1-2.619-3.349-1.615-5.221
					c2.531-4.726,5.243-9.334,8.126-13.815c1.173-1.823,3.64-2.277,5.428-1.04c2.283,1.58,4.571,3.151,6.866,4.711
					c1.742,1.185,2.2,3.524,1.066,5.293c-2.568,4.007-4.99,8.127-7.255,12.349C1311.348,872.455,1309.041,873.197,1307.153,872.212z
					"/>
				<path style="fill:#355389;" d="M1318.418,848.881c-0.992-0.732-1.981-1.466-2.97-2.202c-1.716-1.275-2.089-3.722-0.802-5.423
					c3.955-5.222,8.16-10.232,12.598-15.012c1.468-1.583,3.966-1.602,5.507-0.083c0.879,0.865,1.759,1.729,2.641,2.591
					c1.505,1.47,1.543,3.847,0.118,5.385c-4.114,4.44-8.018,9.093-11.691,13.94C1322.534,849.771,1320.133,850.148,1318.418,848.881
					z"/>
			</g>
			<path style="fill:#355389;" d="M1289.098,895.068c-0.209,0.171-0.414,0.345-0.617,0.521l-3.453-1.667
				c-1.85-0.893-2.628-3.114-1.74-4.961l8.001-16.618c0.889-1.847,3.109-2.619,4.958-1.727l10.5,5.07
				c1.285,0.621,2.054,1.881,2.104,3.213L1289.098,895.068z"/>
		</g>
	</g>
	<g>
		<g>
			<path style="fill:#FFA283;" d="M1968.082,1002.592c0,0-79.386-40.571-90.129-60.713c-10.742-20.145-55.658-87.963-55.658-87.963
				s-22.938,2.9-29.003,13.183c7.45,27.95,30.313,105.397,59.854,128.226c29.546,22.829,107.348,69.886,107.348,69.886
				L1968.082,1002.592z"/>
			<g>
				<path style="fill:#FFA283;" d="M1952.382,1480.429c0,0-2.687,55.058-2.687,88.63s51.703,165.174,47.001,183.973
					c-4.701,18.801,48.724,16.246,48.724,16.246s3.647-102.189-10.115-150.534c-13.764-48.341,0-147.714,0-147.714
					L1952.382,1480.429z"/>
				<path style="fill:#FFA283;" d="M2082.074,1453.89c0,0,17.35,90.996,31.451,111.811c14.101,20.814,89.973,162.489,89.973,180.618
					c0,18.127,47.674,3.356,47.674,3.356s-40.285-155.103-56.401-202.102c-16.116-47.002-22.157-85.945-22.157-85.945
					L2082.074,1453.89z"/>
			</g>
			<path style="fill:#13375B;" d="M1951.71,1363.599c-4.934,29.945-25.007,211.827-25.007,211.827s68.459,21.023,109.415,11.624
				c0,0-1.151-146.236,8.252-146.236c0.094,0,0.187,0,0.28,0.002c13.43,0.073,25.236,9.448,28.476,22.481
				c7.841,31.523,29.363,126.572,29.363,126.572s86.529-12.058,105.328-20.786c0,0-28.903-205.743-60.46-237.302l-37.858-33.983
				l-137.993-17.787C1971.506,1280.011,1955.203,1342.41,1951.71,1363.599z"/>
			<path style="fill:#466EB6;" d="M1915.451,1810.775h146.708c0,0,3.024-53.042-7.046-63.114
				c-10.076-10.073-7.389,1.274-24.173,7.687c-16.788,6.411-27.71-9.054-35.38-16.724c-7.673-7.671-2.223,24.479-34.451,24.479
				S1908.066,1796.003,1915.451,1810.775z"/>
			<path style="fill:#466EB6;" d="M2203.637,1737.441c-7.475,2.172-30.214,22.977-36.927,44.462
				c-6.712,21.486-4.029,28.872-4.029,28.872s24.844,9.399,71.174,3.357c46.33-6.043,38.941-10.742,38.941-10.742
				s-6.041-47.672-14.769-61.773C2249.295,1727.518,2216.732,1733.636,2203.637,1737.441z"/>
			<path style="fill:#FFA283;" d="M2236.293,1149.632c47.857,77.249,75.6,130.379,48.85,163.957
				c-29.227,36.688-91.072,29.498-119.715,60.677c-26.899-9.918-32.339-36.454-32.339-36.454s10.952-3.56,27.728-9.013
				c55.134-23.935,78.371-38.104,70.738-64.218c-7.633-26.112-34.571-60.979-34.571-60.979
				C2209.414,1147.243,2236.293,1149.632,2236.293,1149.632z"/>
			<path style="fill:#F47458;" d="M2264.95,1163.447c0,0-36.677,54.167-65.341,55.153c-18.813-28.333-27.204-44.608-27.389-41.504
				c-0.208,3.511-0.17,96.04-5.054,146.564c-37.828,21.899-215.737,7.45-215.856-15.702c-0.09-17.685,42.838-194.887,18.132-214.19
				c-8.979-7.017-85.346-47.971-85.346-47.971s31.854-62.661,51.458-82.088c0,0,38.266,20.012,74.817,34.714
				c47.956,19.289,88.329,24.626,115.011,37.014C2219.391,1079.082,2226.448,1100.068,2264.95,1163.447z"/>
			<path style="fill:#FFA283;" d="M2045.144,975.597v66.473c0,0,24.344,26.185,55.9,8.056l14.537-85.544L2045.144,975.597z"/>
			<path style="opacity:0.68;fill:#FF7F4C;" d="M2045.144,1009.096c20.109,5.072,44.966-3.48,66.342-20.428l4.096-24.087
				l-70.438,11.016V1009.096z"/>
			<path style="fill:#FFA283;" d="M2046.997,860.302c0,0-68.589,82.31-37.344,122.705c31.249,40.392,102.126,12.956,137.183-38.107
				C2181.894,893.837,2059.953,822.195,2046.997,860.302z"/>
			<path style="fill:#011037;" d="M2114.066,890.027c0,0,25.15,0.763,15.239,24.388c-9.906,23.625-27.816,31.629-18.288,41.154
				c6.552,6.55,2.813,19.945-0.162,27.676c-1.539,3.997-1.774,8.377-0.522,12.474l0.166,0.545
				c2.777,9.105,11.524,15.029,21.006,14.211c23.076-1.991,61.682-13.613,59.533-69.384c0,0,19.227-35.822,0.088-63.257
				c-19.139-27.438-33.62-25.15-33.62-25.15s-6.857-25.913-28.2-32.01c-21.339-6.097-83.833-28.2-90.69,6.097
				C2031.754,861.065,2062.241,886.215,2114.066,890.027z"/>
			<path style="fill:#FFA283;" d="M2107.302,933.087c1.779-0.913,27.128-12.67,30.866,1.714c3.466,13.35-1.345,34.011-19.536,34.011
				C2100.445,968.812,2084.438,944.805,2107.302,933.087z"/>
			<path style="fill:#A4C0F5;" d="M2062.159,1810.775c0,0,0.631-11.016,0.358-23.959c-17.203,7.438-111.598,6.243-145.898,5.547
				c-2.987,6.884-3.569,13.606-1.168,18.412H2062.159z"/>
			<path style="fill:#A4C0F5;" d="M2233.854,1814.132c46.33-6.043,38.941-10.742,38.941-10.742s-1.393-10.981-3.803-23.963
				l-0.008,0.004c-30.747,30.747-82.157,18.861-104.774,11.512c-3.444,14.567-1.53,19.833-1.53,19.833
				S2187.524,1820.175,2233.854,1814.132z"/>
		</g>
		<path style="fill:#FFA283;" d="M1801.524,892.381c11.246-3.112,25.422-9.151,35.842-13.925c-4.508-6-7.597-10.618-8.274-12.773
			c-3.167-10.067,16.828-49.465,13.549-52.692c-3.279-3.227-15.486,17.275-17.504,15.289c-2.018-1.986-4.888-47.009-11.563-46.877
			c-6.675,0.132,0.015,38.242-4.188,38.325c-4.202,0.083-11.532-45.358-18.117-40.669c-6.585,4.689,9.197,39.833,4.782,41.693
			c-4.414,1.86-17.121-31.424-21.818-31.331c-4.697,0.093-1.16,7.474,2.229,16.271c3.39,8.797,9.068,20.841,6.349,20.895
			c-2.719,0.054-15.996-20.957-20.663-19.345c-4.667,1.612,32.646,62.415,35.877,75.774
			C1798.396,884.545,1799.613,887.815,1801.524,892.381z"/>
	</g>
</g>
</svg>
